<svg width="48" height="48" viewBox="0 0 48 48" fill="none" xmlns="http://www.w3.org/2000/svg">
<path d="M15 3C13.4087 3 11.8826 3.63214 10.7574 4.75736C9.63214 5.88258 9 7.4087 9 9V39C9 40.5913 9.63214 42.1174 10.7574 43.2426C11.8826 44.3679 13.4087 45 15 45H33C34.5913 45 36.1174 44.3679 37.2426 43.2426C38.3679 42.1174 39 40.5913 39 39V16.242C38.9989 15.0489 38.5242 13.9051 37.68 13.062L28.941 4.317C28.5229 3.8992 28.0267 3.56785 27.4805 3.34188C26.9344 3.1159 26.3491 2.99973 25.758 3H15ZM12 9C12 8.20435 12.3161 7.44129 12.8787 6.87868C13.4413 6.31607 14.2044 6 15 6H24V13.5C24 14.6935 24.4741 15.8381 25.318 16.682C26.1619 17.5259 27.3065 18 28.5 18H36V39C36 39.7957 35.6839 40.5587 35.1213 41.1213C34.5587 41.6839 33.7956 42 33 42H15C14.2044 42 13.4413 41.6839 12.8787 41.1213C12.3161 40.5587 12 39.7957 12 39V9ZM35.379 15H28.5C28.1022 15 27.7206 14.842 27.4393 14.5607C27.158 14.2794 27 13.8978 27 13.5V6.621L35.379 15Z" fill="#005365"/>
</svg>
