<svg width="48" height="48" viewBox="0 0 48 48" fill="none" xmlns="http://www.w3.org/2000/svg">
<path d="M29.5 30C31.432 30 33 31.568 33 33.5L32.998 35.424C33.232 39.804 29.976 42.018 24.134 42.018C18.314 42.018 15 39.838 15 35.5V33.5C15 31.568 16.568 30 18.5 30H29.5ZM29.5 33H18.5C18.3674 33 18.2402 33.0527 18.1464 33.1464C18.0527 33.2402 18 33.3674 18 33.5V35.5C18 37.852 19.774 39.018 24.134 39.018C28.47 39.018 30.124 37.89 30 35.504V33.5C30 33.3674 29.9473 33.2402 29.8536 33.1464C29.7598 33.0527 29.6326 33 29.5 33ZM7.5 20H16.252C16 20.9791 15.9355 21.997 16.062 23H7.5C7.36739 23 7.24021 23.0527 7.14645 23.1464C7.05268 23.2402 7 23.3674 7 23.5V25.5C7 27.852 8.774 29.018 13.134 29.018C14.058 29.018 14.86 28.966 15.548 28.864C14.4037 29.589 13.568 30.7117 13.202 32.016L13.134 32.018C7.314 32.018 4 29.838 4 25.5V23.5C4 21.568 5.568 20 7.5 20ZM40.5 20C42.432 20 44 21.568 44 23.5L43.998 25.424C44.232 29.804 40.976 32.018 35.134 32.018L34.796 32.014C34.4189 30.6741 33.5486 29.5265 32.36 28.802C33.134 28.946 34.054 29.018 35.134 29.018C39.47 29.018 41.124 27.89 41 25.504V23.5C41 23.3674 40.9473 23.2402 40.8536 23.1464C40.7598 23.0527 40.6326 23 40.5 23H31.94C32.0638 21.9968 31.9986 20.9793 31.748 20H40.5ZM24 16C24.7879 16 25.5681 16.1552 26.2961 16.4567C27.0241 16.7583 27.6855 17.2002 28.2426 17.7574C28.7998 18.3145 29.2417 18.9759 29.5433 19.7039C29.8448 20.4319 30 21.2121 30 22C30 22.7879 29.8448 23.5681 29.5433 24.2961C29.2417 25.0241 28.7998 25.6855 28.2426 26.2426C27.6855 26.7998 27.0241 27.2417 26.2961 27.5433C25.5681 27.8448 24.7879 28 24 28C22.4087 28 20.8826 27.3679 19.7574 26.2426C18.6321 25.1174 18 23.5913 18 22C18 20.4087 18.6321 18.8826 19.7574 17.7574C20.8826 16.6321 22.4087 16 24 16ZM24 19C23.606 19 23.2159 19.0776 22.8519 19.2284C22.488 19.3791 22.1573 19.6001 21.8787 19.8787C21.6001 20.1573 21.3791 20.488 21.2284 20.8519C21.0776 21.2159 21 21.606 21 22C21 22.394 21.0776 22.7841 21.2284 23.1481C21.3791 23.512 21.6001 23.8427 21.8787 24.1213C22.1573 24.3999 22.488 24.6209 22.8519 24.7716C23.2159 24.9224 23.606 25 24 25C24.7956 25 25.5587 24.6839 26.1213 24.1213C26.6839 23.5587 27 22.7956 27 22C27 21.2044 26.6839 20.4413 26.1213 19.8787C25.5587 19.3161 24.7956 19 24 19ZM13 6C14.5913 6 16.1174 6.63214 17.2426 7.75736C18.3679 8.88258 19 10.4087 19 12C19 13.5913 18.3679 15.1174 17.2426 16.2426C16.1174 17.3679 14.5913 18 13 18C11.4087 18 9.88258 17.3679 8.75736 16.2426C7.63214 15.1174 7 13.5913 7 12C7 10.4087 7.63214 8.88258 8.75736 7.75736C9.88258 6.63214 11.4087 6 13 6ZM35 6C36.5913 6 38.1174 6.63214 39.2426 7.75736C40.3679 8.88258 41 10.4087 41 12C41 13.5913 40.3679 15.1174 39.2426 16.2426C38.1174 17.3679 36.5913 18 35 18C33.4087 18 31.8826 17.3679 30.7574 16.2426C29.6321 15.1174 29 13.5913 29 12C29 10.4087 29.6321 8.88258 30.7574 7.75736C31.8826 6.63214 33.4087 6 35 6ZM13 9C12.2044 9 11.4413 9.31607 10.8787 9.87868C10.3161 10.4413 10 11.2044 10 12C10 12.7956 10.3161 13.5587 10.8787 14.1213C11.4413 14.6839 12.2044 15 13 15C13.7956 15 14.5587 14.6839 15.1213 14.1213C15.6839 13.5587 16 12.7956 16 12C16 11.2044 15.6839 10.4413 15.1213 9.87868C14.5587 9.31607 13.7956 9 13 9ZM35 9C34.2044 9 33.4413 9.31607 32.8787 9.87868C32.3161 10.4413 32 11.2044 32 12C32 12.7956 32.3161 13.5587 32.8787 14.1213C33.4413 14.6839 34.2044 15 35 15C35.7956 15 36.5587 14.6839 37.1213 14.1213C37.6839 13.5587 38 12.7956 38 12C38 11.2044 37.6839 10.4413 37.1213 9.87868C36.5587 9.31607 35.7956 9 35 9Z" fill="#005365"/>
</svg>
