<svg width="42" height="33" viewBox="0 0 42 33" fill="none" xmlns="http://www.w3.org/2000/svg">
<path d="M9.76575 -5.72205e-06C12.4538 -5.72205e-06 14.6618 0.863995 16.3898 2.592C18.1178 4.256 18.9818 6.464 18.9818 9.216C18.9818 10.496 18.8218 11.776 18.5018 13.056C18.1818 14.336 17.5098 16.256 16.4858 18.816L10.9178 32.64H1.41375L5.54175 17.472C3.94175 16.768 2.69375 15.712 1.79775 14.304C0.90175 12.896 0.45375 11.2 0.45375 9.216C0.45375 6.464 1.31775 4.256 3.04575 2.592C4.83775 0.863995 7.07775 -5.72205e-06 9.76575 -5.72205e-06ZM32.4218 -5.72205e-06C35.1098 -5.72205e-06 37.3178 0.863995 39.0458 2.592C40.7738 4.256 41.6378 6.464 41.6378 9.216C41.6378 10.496 41.4778 11.776 41.1578 13.056C40.8378 14.336 40.1658 16.256 39.1418 18.816L33.5738 32.64H24.0698L28.1978 17.472C26.5978 16.768 25.3498 15.712 24.4538 14.304C23.5578 12.896 23.1098 11.2 23.1098 9.216C23.1098 6.464 23.9738 4.256 25.7018 2.592C27.4938 0.863995 29.7338 -5.72205e-06 32.4218 -5.72205e-06Z" fill="#01818E"/>
</svg>
